<?xml version="1.0" encoding="utf-8"?>
<!-- Generator: Adobe Illustrator 17.0.0, SVG Export Plug-In . SVG Version: 6.00 Build 0)  -->
<!DOCTYPE svg PUBLIC "-//W3C//DTD SVG 1.1//EN" "http://www.w3.org/Graphics/SVG/1.1/DTD/svg11.dtd">
<svg version="1.1" id="Capa_2" xmlns="http://www.w3.org/2000/svg" xmlns:xlink="http://www.w3.org/1999/xlink" x="0px" y="0px"
	 width="2268.839px" height="2268.839px" viewBox="0 0 2268.839 2268.839" enable-background="new 0 0 2268.839 2268.839"
	 xml:space="preserve">
<g id="TIERRA">
	<path fill="#5B9E65" d="M1697.864,1197.01c0,339.783-275.407,615.2-615.177,615.2c-339.752,0-615.173-275.416-615.173-615.2
		c0-339.748,275.421-615.168,615.173-615.168C1422.457,581.842,1697.864,857.263,1697.864,1197.01z"/>
	<path fill="#91BBD3" d="M1643.995,1197.029c0,310.034-251.305,561.322-561.308,561.322c-309.999,0-561.309-251.287-561.309-561.322
		c0-310.008,251.31-561.313,561.309-561.313C1392.69,635.716,1643.995,887.021,1643.995,1197.029z"/>
	<path fill="#5B9E65" d="M540.061,969.74c0,0-25.958,93.948-37.707,162.353c-23.606,137.433,37.63,422.714,39.27,100.592
		c0.05-6.901,11.753-46.723,13.917-19.02c0,0,15.141,26.627,42.653,57.27c63.906,71.232,76.657,56.317,144.696,54.339
		c0,0,56.056,3.596,58.179,23.57c0,0-11.731,26.812,34.925,31.113c0,0-42.166,16.477-86.351,90.041c0,0-32.084,77.646,14.96,120.548
		c0,0,37.857,35.919,70.686,41.258c32.824,5.366,6.636,3.198,6.636,3.198s90.402,26.334,111.618,96.554
		c0,0,5.926,73.238,120.815,40.95c0,0,26.56-10.226-5.023-30.562c0,0-44.072-63.038-18.628-81.368c0,0,45.097-25.141,19.965-70.22
		c0,0-7.823-50.761,0.954-76.662c0,0-17.4-96.346-137.275-94.648c0,0-92.756-10.236-44.121-51.503c0,0,66.344-14.093-48.336-16.397
		c0,0-69.412,23.1,19.865-52.938c0,0-16.852-7.327-70.333,3.089c0,0,69.62,21.699,5.321-27.038c0,0-70.767,89.562-71.413-124.325
		c0,0-35.58-38.575,34.468-48.53c29.171-4.151,67.89-89.58,99.396,4.838l15.76,74.625c0,0,32.404-77.005,10.655-151.725
		c0,0,26.42-283.186,50.766-59.786c0,0,121.041-60.979-176.82-170.239c0,0-16.419,20.051,45.698,46.877
		c0,0-30.078,134.158-115.404,22.481C689.852,868.475,563.22,877.928,540.061,969.74z"/>
	<path fill="#5B9E65" d="M1408.49,1121.753c0,0-145.175,104.744-62.749,162.498c0,0,42.07,57.6,96.672,32.766
		c0,0,87.611-54.032,83.292-1.599c0,0-12.566,93.88,35.178,111.984c0,0,54.854-8.411-36.425,135.851c0,0-35.892,72.687,42.053,6.541
		c0,0,184.599-224.24,91.604-559.818c0,0-66.391-180.836-146.358-238.214c0,0-252.832,70.189-204.699,126.922
		c0,0,26.071-25.801,35.855-20.571c0,0-68.558,105.72-19.088,124.406c0,0,20.922,80.239,35.873,87.222
		c0,0,86.933,10.316,71.341-96.965c0,0,54.131-23.349,53.571,52.112c0,0-42.342,16.983-16.993,21.717
		c0,0,30.516,10.349,41.691-22.602c0,0-51.05-69.042-12.358-80.953c0,0,21.392-23.434,77.014,33.913c0,0,37.391,34.862-4.969,65.676
		C1545.562,1079.696,1468.412,1131.09,1408.49,1121.753z"/>
</g>
<path id="felino" fill="#5B9E65" d="M1425.971,411.259c-73.517-22.557,30.489-68.414,30.489-68.414
	c-35.847-4.408-75.551,34.795-99.635,76.003c-16.957,28.99-27.661,69.168-27.661,69.168c-63.617,80.881-14.436,66.734-14.436,66.734
	l65.233-57.695c-9.784,30.331,101.424,74.321,101.424,74.321c-104.947,73.663-33.805,65.74-33.805,65.74
	c40.12-35.887,62.812-50.595,89.092-106.532c15.873-33.661,37.545-23.412,37.545-23.412c48.431,15.412,38.115-54.009,38.115-54.009
	s23.235-10.985,19.54-22.318c0,0-12.955-14.784-31.782,6.861l-37.454-22.625c0,0,13.162-32.201-9.549-32.169
	c0,0-18.457,17.553-4.779,29.857c0,0-30.174,4.395-27.617,34.266c0,0,0.759,24.048-16.451,16.686
	C1504.241,463.719,1452.964,419.53,1425.971,411.259z"/>
<g id="p치jaro">
	<path fill="#5B9E65" d="M1668.333,769.069c0,0,61.421,33.38,49.569-0.248c0,0,1.752-18.881,8.844-12.124l7.191,6.781
		c42.152,67.663,90.817,46.19,103.04,22.797c8.058-15.394-0.063-42.744-0.063-42.744c-27.978-55.03-76.237-34.397-76.237-34.397
		l-10.587,6.654l10.597-18.05c21.057-74.344,3.541-119.938,3.541-119.938l-4.093,19.427c-5.664,40.661-25.539-7.516-25.539-7.516
		c-22.602-113.719-34.581-26.514-34.581-26.514l0.108,105.755c-0.055-84.444-37.084-97.548-37.084-97.548
		c-37.039-6.731-18.736,54.795-18.736,54.795c23.804,25.317,23.181,50.807,23.181,50.807c-6.143-21.573-25.566-39.551-25.566-39.551
		c-20.958-5.488,0.831,50.373,0.831,50.373l-12.042-23.908c-28.321-17.711-8.401,66.603-8.401,66.603
		c-51.195-72.755,12.982-102.034,12.982-102.034c-26.027-90.849,43.227-66.638,43.227-66.638
		c20.345-79.472,52.958-46.507,65.261,21.722l3.271,9.82c4.588,16.478,7.263-29.437,7.263-29.437
		c4.824-27.834,15.773,1.188,15.773,1.188c18.718,32.78,3.794,128.968,3.794,128.968c3.117-4.684,21.474-3.297,21.474-3.297
		c59.832,12.95,57.646,80.496,57.646,80.496c-18.412,87.272-106.51,28.836-106.51,28.836s-17.499-15.99-15.032-26.329l-6.54,12.331
		L1668.333,769.069z"/>
	<path fill="#5B9E65" d="M1790.525,807.626l7.48,44.312c0,0,23.597,5.98,25.467-45.012L1790.525,807.626z"/>
	<path fill="#5B9E65" d="M1611.961,648.092c0,0-70.302-45.486-71.54,42.206c0,0,4.02,148.246,160.668,165.966
		c0,0,49.416,12.955,31.682-73.622c0,0-122.121-3.324-123.304-128.516l-15.665-7.602c0,0-20.579,116.158,126.99,147.443
		c0,0,26.551,72.452-43.544,49.6l-7.913-69.132l-10.2-2.159c0,0,18.755,71.146-18.646,58.196c0,0-60.455-23.425-3.496-70.161
		l-8.23-6.004c0,0-26.659,20.038-31.428,42.523c0,0-26.713-9.987-22.802-33.7c0,0,8.149-27.631,32.703-23.366l-3.831-12.169
		c0,0-33.308-4.155-39.37,24.659c0,0-23.28-51.724-6.901-58.436c0,0,17.661-15.823,30.877-4.707l2.005-14.549
		c0,0-32.666-14.21-40.273,8.619c0,0,4.526-41.773,32.523-32.662l27.201,3.61L1611.961,648.092z"/>
	<path fill="#5B9E65" d="M1806.867,764.169c-1.978,9.345-9.187,15.732-16.098,14.273c-6.911-1.454-10.949-10.226-8.989-19.572
		c2.006-9.341,9.215-15.742,16.144-14.282C1804.825,746.042,1808.846,754.819,1806.867,764.169z"/>
</g>
<path id="hombre" fill="#5B9E65" d="M1850.962,1191.17l-63.101,41.515c0,0-46.453,44.682,8.329,35.007l101.595-54.677
	c0,0,1.418,63.702,18.736,70.297c0,0,18.763,11.69,16.306-79.291c0,0,10.407-26.248,30.76-8.117c0,0,50.969,48.462,81.712-16.527
	c0,0,22.168-72.539-43.535-77.037c0,0-55.91-4.793-49.217,53.237c0,0-11.419,31.361-33.055-27.702c0,0-30.607-111.655-31.863,24.694
	c0,0-110.34-15.615-128.173,13.465C1759.457,1166.033,1749.719,1206.609,1850.962,1191.17z"/>
<path id="mujer" fill="#5B9E65" d="M1901.995,1027.39c98.379,10.876,94.756-61.038,94.756-61.038
	c-1.445-89.101-111.172-49.93-111.172-49.93l7.562,44.279c-9.187,33.615-21.762-8.361-21.762-8.361
	c0.958-40.743-14.156-61.038-14.156-61.038c-21.781-12.733-9.179,61.327-9.179,61.327c-50.716-15.664-140.025,0.768-140.025,0.768
	c-38.836,25.698,63.896,32.987,63.896,32.987l10.462,48.088c-83.907,24.92-59.922,50.68-59.922,50.68
	c75.831,5.376,132.745-69.805,132.745-69.805l2.294,50.861c0,0,27.039,18.239,20.363-54.127c0,0,4.21-39.424,22.016-9.124
	L1901.995,1027.39z"/>
<g id="edificio">
	<polygon fill="#5B9E65" points="1186.365,1862.999 1186.807,2120.329 1288.917,2156.583 1279.839,1914.971 1289.27,1921.023 
		1296.614,2163.648 1070.473,2227.101 975.288,2181.661 997.086,2173.477 1075.491,2216.775 1274.979,2163.042 1172.696,2125.858 
		1174.883,1842.085 1279.839,1914.971 1280.299,1927.23 	"/>
	<polygon fill="#5B9E65" points="994.164,1865.709 992.474,2174.895 1178.974,2118.325 1181.658,2129.111 995.275,2186.295 
		975.288,2181.661 980.979,1865.329 	"/>
	<polygon fill="#5B9E65" points="1100.218,2105.135 1096.329,2067.264 1140.884,2054.165 1142.473,2092.108 	"/>
	<polygon fill="#5B9E65" points="1023.091,2124.567 1019.219,2086.697 1063.761,2073.615 1065.36,2111.531 	"/>
	<polygon fill="#5B9E65" points="1018.461,2006.078 1014.581,1968.208 1059.127,1955.099 1060.721,1993.033 	"/>
	<polygon fill="#5B9E65" points="1093.966,1987.062 1090.054,1949.173 1134.614,1936.084 1136.218,1974.016 	"/>
	<polygon fill="#5B9E65" points="1259.711,2073.11 1260.578,2113.635 1217.893,2098.476 1217.857,2061.501 	"/>
	<polygon fill="#5B9E65" points="1263.017,1978.696 1263.198,2016.187 1220.495,2001.037 1221.064,1959.011 	"/>
</g>
<g id="치rbol2">
	<path fill="#5B9E65" d="M413.067,1142.391c0,0-63.517,85.307-106.695,110.457c0,0-33.385,38.313-143.933-118.506
		c0,0-28.29-38.833-6.617,14.661c3.745,9.229-43.142-23.334,47.974,60.541c0,0,74.435,71.48,15.281,62.302
		c-8.279-1.282-21.663,0.064-42.265-5.438c0,0-163.545-32.116-97.106-3.162c0,0,54.759,31.51,158.084,30.598
		c0,0,101.817,0.379-24.816,36.361c0,0-128.282,45.55-53.797,26.235c19.947-5.177-30.268,21.673-17.165,26.921
		c0,0,19.83,9.775,144.005-68.567c0,0-37.156,90.339-35.684,116.502c0.597,10.47,42.604-101.433,27.156-23.335
		c0,0,25.972-8.076,22.693-78.821c0,0,58.11-52.849,135.82,31.871L413.067,1142.391z"/>
	<path fill="#5B9E65" d="M346.704,1233.824c0,0-44.605-111.899-106.311-52.911c0,0-18.971-153.256-74.435-82.999
		c0,0-69.81-72.208-67.429,36.104c0,0-123.023,1.803-35.078,111.172c0,0-99.744,86.048,19.589,60.789
		c0,0-54.393,111.966,15.372,123.457c0,0,36.618,228.007,144.483,69.661c0,0,177.525,34.844,56.169-134.479l1.323-17.932
		c0,0,141.191,199.83-55.486,158.762c0,0-106.117,188.709-148.753-72.425c0,0-91.639,6.396-22.748-122.246
		c0,0-121.844,38.628-17.123-67.456c0,0-98.705-102.273,38.981-112.459c0,0-22.499-139.452,71.517-39.297
		c0,0,49.343-85.163,76.427,82.24c0,0,56.137-61.62,105.796,54.971l6.048-5.8L346.704,1233.824z"/>
</g>
<g id="volc치n">
	<path fill="#5B9E65" d="M1898.173,1572.116c-109.293,72.642-85.624,154.561-85.624,154.561
		c-101.487-15.944-284.568,50.807-284.568,50.807s0.081-18.564,26.225-38.512c0,0,108.335-63.671,237.646-33.578
		c0,0-3.198-55.885,28.448-65.776c0,0-3.695-57.673,33.742-53.724c0,0,15.501-36.876,56.697-16.062"/>
	<path fill="#5B9E65" d="M1812.55,1726.677c0,0,115.101-2.918,98.19-156.846c0,0-187.915-164.48-150.731-255.524
		c0,0-67.709,42.017,2.024,135.273c0,0,68.16,78.108,136.141,122.536c0,0,16.333,130.839-75.226,142.944
		c0,0-16.703-1.852-18.646-9.251C1804.302,1705.809,1806.317,1722.684,1812.55,1726.677z"/>
	<path fill="#5B9E65" d="M1892.961,1689.448c0,0,6.098,78.369,51.313,66.643c0,0,32.016,80.005,72.334-16.839
		c0,0,78.468-16.198,29.667,61.115c0,0-88.849,141.669-1.888,128.426c0,0,107.395-19.847,101.09-169.44
		c0,0-13.362-69.778,72.479-151.897c0,0,102.562-125.689-62.072-93.103c0,0-105.363-58.441-91.487,128.697
		c0,0-40.662-49.732-80.33,6.811c0,0,14.987-57.817-83.97-17.3c0,0,89.336-26.759,75.352,42.315c0,0,35.557-84.231,95-13.812
		c-9.685-164.778,75.776-141.083,84.015-138.861c0,0,147.668-30.363,50.897,80.836c0,0-72.353,59.235-75.126,175.601
		c0,0,18.014,112.12-91.83,137.758c0,0-59.506,10.706,25.277-133.006c0,0,52.324-60.021-52.749-59.154
		c0,0-22.386,81.034-62.515,22.043C1948.42,1746.281,1922.664,1761.268,1892.961,1689.448z"/>
</g>
<g id="ballena">
	<path fill="#5B9E65" d="M451.533,1509.141c0,0-271.826,262.571,94.951,380.572c0,0,118.52,32.07,215.44-12.16
		c0,0,45.012-26.325,40.572-1.219c0,0,1.229,47.518-99.906,48.999c0,0,36.384,70.889,109.838,33.173
		c0,0,23.389,62.704,110.738,41.511c0,0-80.627-42.306-39.523-120.982l25.575-39.994c0,0-281.077,8.194-279.545-87.122
		c0,0,65.216,17.499,51.353-48.738c0,0-88.849,50.048-137.293-78.324c0,0,58.21,26.732,2.389-72.56
		C546.123,1552.296,494.689,1429.146,451.533,1509.141z"/>
	<path fill="#FFFFFF" d="M459.352,1652.518c-0.953,13.714-12.833,24.04-26.546,23.119c-13.677-0.976-24.012-12.837-23.055-26.533
		c0.949-13.713,12.823-24.057,26.519-23.091C449.957,1626.961,460.306,1638.831,459.352,1652.518z"/>
</g>
<path id="flor" fill="#5B9E65" d="M1491.557,1945.135c-101.731,84.006-8.673,116.998-8.673,116.998
	c-20.408-46.254,32.08-106.998,32.08-106.998c-63.464,120.946,11.635,104.324,11.635,104.324
	c55.323-8.953,31.221-88.488-16.596-136.774c-22.865-23.027-29.54-46.841-29.54-46.841c102.535,11.925,74.268-16.017,74.268-16.017
	c18.248-78.307-87.828,4.273-87.828,4.273l-107.123-40.517c148.653-35.033,73.219-46.199,73.219-46.199
	c-5.646-95.299-89.986,39.216-89.986,39.216l-30.173,17.047c0,0-40.689,39.641-0.263,12.837c0,0,30.436-29.885,102.219,10.028
	c0,0,59.47,22.106,33.95,17.246c-121.29-22.92-52.198,48.367-52.198,48.367c9.992,36.786,69.443-42.388,69.443-42.388
	s13.641,40.608,33.056,46.39c0,0,15.366,10.091,3.947,14.553L1491.557,1945.135z"/>
<g id="치rbol">
	<path fill="#5B9E65" d="M990.279,531.234c0,0,50.685-56.322,42.184-107.82c0,0-2.814-37.829-34.456-43.277
		c0,0-140.093-22.155-73.287-30.566c78.473-9.883,5.027-15.15,9.26-24.256c0,0,4.571-33.71,62.184-12.241
		c0,0-52.726-122.83,33.322-111.515c0,0,51.484,6.103,47.175,97.991c0,0,16.275-7.535,69.132-75.085
		c0,0,40.807-42.717,20.842,99.991c0,0,129.455,17.63,37.472,46.773c0,0-116.894,9.16-45.549,157.176
		C1158.558,528.406,1075.103,569.976,990.279,531.234z"/>
	<path fill="#5B9E65" d="M1037.387,451.74c0,0-106.266,52.826-157.533-46.813c0,0-88.726-126.669,30.458-165.013
		c0,0-18.249-87.688,75.361-95c0,0,96.351-72.403,150.906-14.03c0,0,115.336-14.098,87.819,94.255c0,0,80.944,44.461,39.885,106.37
		c0,0,71.422,102.073-62.541,117.463l-76.964,4.621l13.433,11.374c0,0,202.427,20.015,145.27-129.957
		c0,0,35.937-69.462-47.491-115.883c0,0,34.121-109.622-84.286-98.059c0,0-93.731-79.06-168.207,8.574
		c0,0-116.474-19.595-82.218,106.076c0,0-145.929,28.885-33.489,178.988c0,0,39.822,110.219,159.666,53.445L1037.387,451.74z"/>
	<path fill="#5B9E65" d="M1097.638,194.907c0.085,5.226-4.047,9.535-9.296,9.625c-5.217,0.086-9.526-4.07-9.603-9.301
		c-0.091-5.221,4.061-9.531,9.291-9.625C1093.261,185.525,1097.552,189.689,1097.638,194.907z"/>
	<path fill="#5B9E65" d="M1226.439,277.91c0.081,5.217-4.083,9.531-9.314,9.617c-5.222,0.085-9.531-4.08-9.603-9.301
		c-0.1-5.222,4.047-9.522,9.296-9.608C1222.049,268.528,1226.331,272.684,1226.439,277.91z"/>
	<path fill="#5B9E65" d="M1209.754,411.68c0.091,5.23-4.066,9.535-9.296,9.616c-5.24,0.091-9.522-4.074-9.63-9.301
		c-0.072-5.226,4.083-9.517,9.332-9.611C1205.363,402.293,1209.672,406.458,1209.754,411.68z"/>
	<path fill="#5B9E65" d="M920.578,330.072c0.086,5.226-4.074,9.531-9.3,9.621c-5.236,0.081-9.531-4.074-9.622-9.314
		c-0.09-5.222,4.07-9.522,9.301-9.608S920.484,324.845,920.578,330.072z"/>
	<path fill="#5B9E65" d="M984.75,424.937c0.086,5.226-4.079,9.53-9.3,9.616c-5.227,0.086-9.526-4.074-9.63-9.304
		c-0.086-5.222,4.083-9.531,9.304-9.617C980.355,415.55,984.66,419.71,984.75,424.937z"/>
	<path fill="#5B9E65" d="M955.58,244.633c0.086,5.227-4.065,9.522-9.296,9.612c-5.23,0.091-9.53-4.065-9.616-9.296
		c-0.091-5.226,4.079-9.531,9.304-9.611C951.194,235.247,955.49,239.403,955.58,244.633z"/>
</g>
<g id="casa">
	<path fill="#5B9E65" d="M389.064,1082.135l-126.027-80.7L380.315,855.29l107.404,64.958l-20.042,20.074
		c0,0-35.345-4.666-81.314-56.038c0,0-71.991,53.174-83.081,116.605c0,0,96.875,33.308,97.25,60.966L389.064,1082.135z"/>
	<path fill="#5B9E65" d="M153.509,819.994l265.936,10.249l-162.619,206.732L153.509,819.994
		c108.367,96.194,109.528,181.442,109.528,181.442l123.655-153.201C386.692,848.234,237.85,877.102,153.509,819.994z"/>
	<path fill="#5B9E65" d="M438.262,757.827c-34.057-49.041-151.272-66.86-151.272-66.86l-133.48,129.026
		c77.059-8.176,139.42-110.814,139.42-110.814s101.084,59.493,126.791,48.585c0,0-19.419,62.465-17.63,77.37l17.354-4.892
		l27.332-60.567L438.262,757.827z"/>
	<path fill="#5B9E65" d="M446.777,769.675l76.751,71.237c0,0-19.838,11.523-83.252-56.823L446.777,769.675z"/>
	<polygon fill="#5B9E65" points="252.86,928.961 281.457,950.588 319.399,901.141 293.047,878.922 	"/>
	<polygon fill="#5B9E65" points="268.61,786.682 299.289,805.241 331.924,752.158 303.436,732.776 	"/>
</g>
<g id="caballo">
	<path fill="#5B9E65" d="M646.165,710.923c0,0-39.488-19.648-83.871-65.925c0,0-29.704-20.647-28.85-40.621
		c0,0-29.857,40.4,14.251,80.79c46.601,42.662,11.767,74.955,11.767,74.955c13.804-17.838-33.055-62.872-33.055-62.872
		c-77.1-90.317-10.985-119.568-10.985-119.568c-2.756-24.64,62.478-56.227,62.478-56.227s77.317-31.94,68.21-65.673l-3.699-49.334
		c1.487-54.058,31.375-55.075,31.375-55.075c-11.961-12.164-0.646-38.936-0.646-38.936l22.743,24.509
		c0,0,35.864,6.59,104.197,54.484c0,0,11.102,46.403-56.006,24.034l-26.989,0.443c0,0-18.05,40.295-2.584,57.537
		c110.015,122.672,89.933,115.968,89.933,115.968c-8.583,14.07-43.562-14.332-86.568-53.485c0,0-5.054,27.215-39.324,49.669
		c-24.626,16.134-51.982,37.942-82.448,33.032c0,0,58.386,63.638,59.854,82.398C655.948,701.026,660.831,709.857,646.165,710.923z"
		/>
	<path fill="#FFFFFF" d="M723.603,369.301c0,7.842-6.153,14.205-13.732,14.205c-7.588,0-13.727-6.364-13.727-14.205
		c0-7.846,6.139-14.202,13.727-14.202C717.451,355.1,723.603,361.456,723.603,369.301z"/>
</g>
</svg>
