<?xml version="1.0" encoding="utf-8"?>
<!-- Generator: Adobe Illustrator 27.5.0, SVG Export Plug-In . SVG Version: 6.00 Build 0)  -->
<svg version="1.1" xmlns="http://www.w3.org/2000/svg" xmlns:xlink="http://www.w3.org/1999/xlink" x="0px" y="0px"
	 viewBox="0 0 500 500" style="enable-background:new 0 0 500 500;" xml:space="preserve">
<g id="Doted_Line_00000147222569975210904100000012982124502804166327_">
	<g id="Doted_Line">
		<g>
			
				<line style="fill:none;stroke:#FF95FB;stroke-width:1.5;stroke-linecap:round;stroke-linejoin:round;" x1="405.352" y1="139.34" x2="405.352" y2="145.34"/>
			
				<path style="fill:none;stroke:#FF95FB;stroke-width:1.5;stroke-linecap:round;stroke-linejoin:round;stroke-dasharray:12.0321,15.0401;" d="
				M404.779,160.346c-2.585,12.426-13.597,21.762-26.789,21.762h-29.817c-15.112,0-27.363-12.251-27.363-27.363v0
				c0-15.112-12.251-27.363-27.363-27.363H200.89c-15.112,0-27.363-12.251-27.363-27.363v-3.273
				c0-15.112-12.251-27.363-27.363-27.363h-29.817c-15.112,0-27.363,12.251-27.363,27.363v45.057"/>
			
				<line style="fill:none;stroke:#FF95FB;stroke-width:1.5;stroke-linecap:round;stroke-linejoin:round;" x1="88.985" y1="149.325" x2="88.985" y2="155.325"/>
		</g>
	</g>
</g>
<g id="Speed_Lines">
	<g id="Lines_00000164480840470852677740000012334113337178749586_">
		<g>
			
				<line style="fill:#FFFFFF;stroke:#303030;stroke-width:1.5;stroke-linecap:round;stroke-linejoin:round;stroke-miterlimit:10;" x1="115.544" y1="431.604" x2="45.329" y2="431.604"/>
			
				<line style="fill:#FFFFFF;stroke:#303030;stroke-width:1.5;stroke-linecap:round;stroke-linejoin:round;stroke-miterlimit:10;" x1="38.831" y1="431.604" x2="36.665" y2="431.604"/>
			
				<line style="fill:#FFFFFF;stroke:#303030;stroke-width:1.5;stroke-linecap:round;stroke-linejoin:round;stroke-miterlimit:10;" x1="106.304" y1="419.692" x2="67.129" y2="419.692"/>
			
				<line style="fill:#FFFFFF;stroke:#303030;stroke-width:1.5;stroke-linecap:round;stroke-linejoin:round;stroke-miterlimit:10;" x1="100.369" y1="407.779" x2="88.722" y2="407.779"/>
		</g>
		<g>
			
				<line style="fill:#FFFFFF;stroke:#303030;stroke-width:1.5;stroke-linecap:round;stroke-linejoin:round;stroke-miterlimit:10;" x1="353.6" y1="431.604" x2="283.385" y2="431.604"/>
			
				<line style="fill:#FFFFFF;stroke:#303030;stroke-width:1.5;stroke-linecap:round;stroke-linejoin:round;stroke-miterlimit:10;" x1="276.887" y1="431.604" x2="274.721" y2="431.604"/>
			
				<line style="fill:#FFFFFF;stroke:#303030;stroke-width:1.5;stroke-linecap:round;stroke-linejoin:round;stroke-miterlimit:10;" x1="344.361" y1="419.692" x2="305.186" y2="419.692"/>
		</g>
	</g>
</g>
<g id="Pin">
	<path id="Pin_00000049908391884628234360000012903766376361343154_" style="fill:#00826F;" d="M405.081,60.351
		c-16.86,0.143-29.247,15.517-27.304,32.276c1.829,15.802,13.102,27.104,22.503,34.205c2.972,2.258,7.087,2.286,10.073,0.029
		c10.259-7.744,22.775-20.518,22.775-38.706C433.128,72.71,420.555,60.208,405.081,60.351z M405.324,102.257
		c-7.787,0-14.102-6.315-14.102-14.102c0-7.801,6.315-14.116,14.102-14.116c7.801,0,14.116,6.315,14.116,14.116
		C419.44,95.942,413.125,102.257,405.324,102.257z"/>
</g>
<g id="Character_00000085941221089723144490000008594324089873879960_">
	<g id="Character">
		<g id="Arm_00000138551167645908155500000000144510061153773751_">
			
				<path id="Arm_00000093154572071416675060000017314910014785393290_" style="fill:#FFFFFF;stroke:#303030;stroke-width:1.5;stroke-linecap:round;stroke-linejoin:round;stroke-miterlimit:10;" d="
				M245.325,228.188c-2.109-5.785-7.489-28.699-8.113-37.113c-0.624-8.414-0.259-15.451,2.77-21.105
				c3.029-5.654,7.787-9.248,7.787-9.248c9.444,1.136,14.669,6.468,19.056,23.662c2.708,10.613,7.15,27.634,7.15,27.634
				s14.216,2.964,22.296,5.485c4.566,1.425,5.911,5.367,5.911,5.367v15.751c0,0-1.816,4.067-8.481,4.651
				c-7.622,0.668-25.87-1.643-33.548-2.835C252.473,239.246,249.158,238.704,245.325,228.188z"/>
			<path style="fill:#FFC4B0;" d="M298.42,222.699c16.47-4.023,19.867-1.454,21.407,3.136c1.539,4.589,2.997,7.991-4.536,9.449
				c-7.533,1.458-15.875,2.43-15.875,2.43S293.056,232.566,298.42,222.699z"/>
			<path style="opacity:0.2;fill:#303030;" d="M298.42,222.699c16.47-4.023,19.867-1.454,21.407,3.136
				c1.539,4.589,2.997,7.991-4.536,9.449c-7.533,1.458-15.875,2.43-15.875,2.43S293.056,232.566,298.42,222.699z"/>
			<path style="fill:#FFC4B0;" d="M285.83,238.329c3.552,2.093,8.767,0.308,11.475-1.986c2.814-1.022,0.694-3.781-0.751-5.075
				C291.671,226.421,279.258,234.457,285.83,238.329z"/>
			<path style="opacity:0.2;fill:#303030;" d="M285.83,238.329c3.552,2.093,8.767,0.308,11.475-1.986
				c2.814-1.022,0.694-3.781-0.751-5.075C291.671,226.421,279.258,234.457,285.83,238.329z"/>
			<path style="fill:none;stroke:#303030;stroke-width:1.5;stroke-linecap:round;stroke-linejoin:round;stroke-miterlimit:10;" d="
				M273.974,212.018c-4.984-0.823-8.843-0.971-11.939,0"/>
		</g>
		<g id="Leg_2">
			<g id="Leg_00000118386081406438625510000016834856654663603869_">
				<g>
					<path style="fill:#FFC4B0;" d="M306.635,278.712c1.948-18.348-1.207-24.867-14.848-30.782
						c-13.239-5.741-35.923-8.865-71.109-17.06h-40.698c-8.343,21.556-5.184,35.918,10.426,45.041
						c19.292,11.275,62.495,9.095,69.01,9.26c9.541,0.241,12.599,0.241,16.484,0.241c-0.802,1.95-1.663,4.267-2.443,6.85
						c-1.945,6.44-1.553,21.778-1.857,28.461c-0.693,15.25-0.298,18.415-1.928,25.631c-0.647,2.864-3.769,5.398-4.527,9.892
						c-0.373,2.21-0.583,5.417,0.991,7.749c1.281,1.898,3.384,2.816,5.673,2.886c5.847,0.178,11.74-0.58,17.527,0.269
						c3.502,0.514,6.889,1.606,10.346,2.366c3.217,0.707,6.497,1.125,9.788,1.249c3.618,0.136,7.297-0.115,10.79-1.117
						c2.753-0.79,7.786-2.411,8.149-5.777c0.321-2.972-3.225-3.901-5.46-4.649c-6.064-2.03-12.057-4.369-17.655-7.484
						c-5.578-3.104-12.32-7.493-11.174-14.36c0.891-5.336,2.063-8.362,5.306-17.719
						C302.672,310.301,305.181,292.413,306.635,278.712z"/>
				</g>
				<path style="fill:none;stroke:#303030;stroke-width:1.5;stroke-linecap:round;stroke-linejoin:round;stroke-miterlimit:10;" d="
					M283.307,281.33c-2.361,1.599-4.834,3.139-7.406,4.083"/>
				<path style="fill:#303030;" d="M271.334,327.371c-1.206,0.334-1.523,0.877-1.351,3.385c0.172,2.508,0.255,9.861-1.835,14.753
					s-3.886,9.156-3.615,14.507c0.271,5.35,3.03,8.276,10.47,8.611c7.44,0.334,9.53-1.338,14.128-0.585
					c4.598,0.752,12.791,4.096,24.244,3.511c11.453-0.585,15.311-4.619,15.8-7.524c0.489-2.905-1.421-4.514-6.772-6.019
					c-5.35-1.505-12.825-4.079-17.448-7.39c-4.623-3.311-7.967-5.819-9.053-7.909c-1.087-2.09-0.584-5.081,0.298-7.974
					c0.982-3.217,1.824-5.53,0.136-6.093l-0.669,2.117c0,0-2.065,3.653-13.087,3.438c-8.584-0.168-11.344-4.027-11.344-4.027
					L271.334,327.371z"/>
				<g>
					<path style="fill:#F55571;" d="M307.725,369.943c5.512,0,14.047,0,17.375,0c3.329,0,5.92-2.691,5.86-3.845
						c-0.264-5.088-2.359-7.295-9.82-9.263c-4.539-1.198-7.147-2.199-11.068-4.476c-4.542-2.638-12.632-9.127-14.477-10.667
						c-2.403-2.005-8.38-1.687-11.274,2.504L307.725,369.943z"/>
					<g>
						<path style="fill:#F55571;" d="M307.725,369.943c-0.36-2.791-1.203-7.845-1.694-10.616c-0.118-0.667-0.251-1.36-0.658-1.901
							c-0.232-0.31-0.542-0.552-0.848-0.788c-6.105-4.71-12.691-8.795-19.623-12.173c-1.157-0.564-2.422-1.122-3.688-0.887
							c-1.007,0.187-1.85,0.849-2.649,1.489c-1.484,1.191-3.662,3.787-7.125,3.664c-3.436-0.122-2.446-4.608-2.446-4.608
							s0.191-1.405,0.429-3.083c-2.422-0.266-2.618,0.818-3.01,2.086c-0.569,1.836-0.79,4.099-1.574,8.355
							c-0.568,3.085-1.181,3.405-1.181,13.912c0.562,3.843,4.429,4.549,10.405,4.549
							C281.752,369.943,307.725,369.943,307.725,369.943z"/>
					</g>
					
						<path style="fill:none;stroke:#303030;stroke-width:1.5;stroke-linecap:round;stroke-linejoin:round;stroke-miterlimit:10;" d="
						M302.846,358.715c2.256-2.905,7.857-5.996,12.097-4.58"/>
					
						<path style="fill:none;stroke:#303030;stroke-width:1.5;stroke-linecap:round;stroke-linejoin:round;stroke-miterlimit:10;" d="
						M307.979,351.045c-2.018,1.103-3.15,2.51-4.518,4.781"/>
					
						<path style="fill:none;stroke:#303030;stroke-width:1.5;stroke-linecap:round;stroke-linejoin:round;stroke-miterlimit:10;" d="
						M310.073,352.358c-2.596-0.113-6.268,0.635-12.467,1.68"/>
					
						<path style="fill:none;stroke:#303030;stroke-width:1.5;stroke-linecap:round;stroke-linejoin:round;stroke-miterlimit:10;" d="
						M302.86,347.626c-2.018,1.103-2.973,2.22-4.342,4.491"/>
					
						<path style="fill:none;stroke:#303030;stroke-width:1.5;stroke-linecap:round;stroke-linejoin:round;stroke-miterlimit:10;" d="
						M304.954,348.94c-2.596-0.113-6.268,0.635-12.467,1.68"/>
					
						<path style="fill:none;stroke:#303030;stroke-width:1.5;stroke-linecap:round;stroke-linejoin:round;stroke-miterlimit:10;" d="
						M297.85,343.66c-2.018,1.103-3.258,3.058-4.627,5.328"/>
					
						<path style="fill:none;stroke:#303030;stroke-width:1.5;stroke-linecap:round;stroke-linejoin:round;stroke-miterlimit:10;" d="
						M299.836,345.521c-2.596-0.113-6.268,0.635-12.467,1.68"/>
					
						<path style="fill:none;stroke:#303030;stroke-width:1.5;stroke-linecap:round;stroke-linejoin:round;stroke-miterlimit:10;" d="
						M264.53,353.437c0.581,0.819,1.315,1.508,2.253,1.992c1.875,0.968,4.134,1.166,6.149,0.539c3.175-0.987,5.62-3.864,8.911-4.339
						c2.394-0.346,4.759,0.659,6.932,1.722c4.014,1.964,10.311,5.629,11.124,6.873c0.812,1.244,1.474,5.133,2.112,8.881"/>
					
						<path style="fill:#FFFFFF;stroke:#303030;stroke-width:1.5;stroke-linecap:round;stroke-linejoin:round;stroke-miterlimit:10;" d="
						M328.676,373.802c-2.959,0.798-19.309,0.684-19.309,0.684s-27.191,0-33.411,0s-9.53-0.197-11.116-2.393
						c-0.935-1.294-1.45-3.375-1.181-6.701c2.584,2.28,1.924,2.927,12.551,2.927s36.563,0.082,42.197,0
						c3.924-0.057,10.022,0.47,12.553-2.223C331.889,367.336,333.188,372.586,328.676,373.802z"/>
				</g>
			</g>
			<path id="Pant" style="fill:#F55571;" d="M307.156,284.847c-1.047,7.797,0.588,19.969-0.376,25.708
				c-1.246,7.456-6.492,9.232-6.492,9.232s-20.625,5.13-29.874-4.184c-3.59-3.615-2.811-6.828-2.544-10.71
				c0.258-3.741,0.704-6.424,0.937-8.928c0.379-4.079,0.669-8.745,0.669-8.745s-33.47,1.607-52.08-1.205
				c-7.862-1.188-27.499-5.7-36.014-14.685c-10.443-11.02-9.773-27.369-2.276-40.908h52.748c0,0,38.033,7.28,52.544,12.548
				c14.512,5.269,19.063,9.126,21.744,15.1C309.414,265.384,308.638,273.746,307.156,284.847z"/>
		</g>
		<g id="Motorcycle">
			<g>
				<g>
					
						<ellipse transform="matrix(0.7047 -0.7095 0.7095 0.7047 -230.3797 229.538)" style="fill:#303030;stroke:#303030;stroke-width:1.5;stroke-linecap:round;stroke-linejoin:round;stroke-miterlimit:10;" cx="160.547" cy="391.517" rx="50.335" ry="50.331"/>
					
						<ellipse transform="matrix(0.6998 -0.7144 0.7144 0.6998 -229.3053 237.4344)" style="fill:#00826F;stroke:#303030;stroke-width:1.5;stroke-linecap:round;stroke-linejoin:round;stroke-miterlimit:10;" cx="167.818" cy="391.517" rx="50.335" ry="50.331"/>
					
						<ellipse transform="matrix(0.7071 -0.7071 0.7071 0.7071 -227.6916 233.3381)" style="fill:#303030;stroke:#303030;stroke-width:1.5;stroke-linecap:round;stroke-linejoin:round;stroke-miterlimit:10;" cx="167.818" cy="391.517" rx="34.86" ry="34.857"/>
					<g>
						
							<ellipse transform="matrix(0.6907 -0.7232 0.7232 0.6907 -231.2216 242.4674)" style="fill:#FF95FB;" cx="167.818" cy="391.517" rx="15.895" ry="15.894"/>
						<path style="fill:#F55571;" d="M174.218,391.517c0,3.535-2.866,6.4-6.401,6.4c-3.535,0-6.4-2.865-6.4-6.4
							c0-3.535,2.866-6.4,6.401-6.4S174.219,387.982,174.218,391.517z"/>
						<path style="fill:#F55571;" d="M170.093,401.179c-12.329,3.345-18.143-14.069-6.684-19.339
							c5.716-2.705,13.227,1.093,14.071,7.401c-2.345-7.915-13.229-9.575-17.467-2.554
							C155.618,393.611,161.964,402.618,170.093,401.179L170.093,401.179z"/>
					</g>
				</g>
				<g>
					
						<path style="fill:#FFFFFF;stroke:#303030;stroke-width:1.5;stroke-linecap:round;stroke-linejoin:round;stroke-miterlimit:10;" d="
						M166.114,394.686c0.337,0.298,0.682,0.541,1.068,0.746c1.111,0.591,2.374,0.748,3.577,0.497
						c16.031-3.45,41.51-13.831,50.18-17.475l-3.255-23.769c-18.785,16.815-41.097,27.793-50.001,31.133l0.007,0.024
						c-0.727,0.286-1.418,0.73-1.989,1.357C163.754,389.372,163.927,392.731,166.114,394.686z"/>
					<path style="fill:#303030;" d="M171.431,390.907c0,1.124-0.911,2.036-2.036,2.036c-1.124,0-2.036-0.912-2.036-2.036
						s0.911-2.036,2.036-2.036C170.519,388.871,171.431,389.783,171.431,390.907z"/>
				</g>
			</g>
			<g>
				<g>
					
						<ellipse transform="matrix(0.6998 -0.7144 0.7144 0.6998 -159.9864 402.369)" style="fill:#303030;stroke:#303030;stroke-width:1.5;stroke-linecap:round;stroke-linejoin:round;stroke-miterlimit:10;" cx="398.697" cy="391.517" rx="50.335" ry="50.331"/>
					
						<ellipse transform="matrix(0.7047 -0.7095 0.7095 0.7047 -157.9007 403.6718)" style="fill:#00826F;stroke:#303030;stroke-width:1.5;stroke-linecap:round;stroke-linejoin:round;stroke-miterlimit:10;" cx="405.968" cy="391.517" rx="50.335" ry="50.331"/>
					
						<ellipse transform="matrix(0.7141 -0.7 0.7 0.7141 -158.0129 396.1091)" style="fill:#303030;stroke:#303030;stroke-width:1.5;stroke-linecap:round;stroke-linejoin:round;stroke-miterlimit:10;" cx="405.968" cy="391.517" rx="34.86" ry="34.857"/>
					<g>
						
							<ellipse transform="matrix(0.6996 -0.7146 0.7146 0.6996 -157.7991 407.7127)" style="fill:#FF95FB;" cx="405.968" cy="391.517" rx="15.895" ry="15.894"/>
						<path style="fill:#F55571;" d="M412.368,391.517c0,3.535-2.866,6.4-6.401,6.4s-6.4-2.865-6.4-6.4c0-3.535,2.866-6.4,6.4-6.4
							C409.503,385.117,412.368,387.982,412.368,391.517z"/>
						<path style="fill:#F55571;" d="M408.243,401.179c-12.329,3.345-18.143-14.069-6.684-19.339
							c5.716-2.705,13.227,1.093,14.071,7.401c-2.345-7.915-13.229-9.575-17.467-2.554
							C393.768,393.611,400.114,402.618,408.243,401.179L408.243,401.179z"/>
					</g>
				</g>
				<g>
					
						<path style="fill:#FFFFFF;stroke:#303030;stroke-width:1.5;stroke-linecap:round;stroke-linejoin:round;stroke-miterlimit:10;" d="
						M406.779,396.06c-0.437,0.105-0.857,0.157-1.293,0.157c-1.259,0-2.447-0.454-3.391-1.241
						c-12.532-10.575-30.15-31.708-36.092-38.997l14.038-19.455c8.686,23.667,23.227,43.839,29.519,50.971l-0.018,0.018
						c0.507,0.594,0.909,1.311,1.119,2.132C411.359,392.477,409.628,395.361,406.779,396.06z"/>
					<path style="fill:#303030;" d="M407.545,390.907c0,1.124-0.911,2.036-2.036,2.036c-1.125,0-2.036-0.912-2.036-2.036
						s0.911-2.036,2.036-2.036C406.633,388.871,407.545,389.783,407.545,390.907z"/>
				</g>
				<g>
					<path style="fill:#F55571;" d="M356.101,367.759c2.627,2.383,6.742,1.991,8.85-0.862c8.129-11.005,20.574-19.072,35.829-19.072
						c12.965,0,20.807,2.35,24.308,3.737c1.501,0.595,3.174,0.545,4.646-0.116l6.536-2.936c3.8-1.707,4.761-6.664,1.866-9.659
						c-5.76-5.96-16.26-13.787-31.311-13.165c-20.404,0.844-33.424,6.059-44.922,22.3c-3.062,4.325-5.436,8.659-7.266,12.885
						C353.608,363.251,354.181,366.017,356.101,367.759L356.101,367.759z"/>
					<path style="fill:#303030;" d="M389.582,327.991c-11.199,2.915-19.797,8.864-27.678,19.996
						c-3.062,4.324-5.436,8.659-7.266,12.885c-1.03,2.379-0.457,5.145,1.463,6.887c0.715,0.649,1.544,1.074,2.41,1.318
						L389.582,327.991z"/>
					
						<path style="fill:none;stroke:#FFFFFF;stroke-width:1.5;stroke-linecap:round;stroke-linejoin:round;stroke-miterlimit:10;" d="
						M408.142,330.812c8.41-0.953,20.547,4.403,26.616,11.305"/>
				</g>
			</g>
			<g>
				
					<path style="fill:#303030;stroke:#303030;stroke-width:1.5;stroke-linecap:round;stroke-linejoin:round;stroke-miterlimit:10;" d="
					M350.487,254.844l-2.912-6.353c-1.022-2.229-3.636-3.235-5.888-2.265l-10.281,4.418c-2.288,0.985-3.345,3.637-2.363,5.926
					l3.865,9.006l46.639,1.293v-7.703C379.547,259.166,371.993,254.873,350.487,254.844z"/>
				<path style="fill:#303030;" d="M354.348,249.513l-1.699,8.554c4.065,0.069,7.941,0.516,11.587,1.42l2.539-9.673
					C362.419,249.845,357.976,249.987,354.348,249.513z"/>
				
					<rect x="332.241" y="233.124" transform="matrix(0.9175 -0.3978 0.3978 0.9175 -68.9777 153.0747)" style="fill:#303030;stroke:#303030;stroke-width:1.5;stroke-linecap:round;stroke-linejoin:round;stroke-miterlimit:10;" width="4.419" height="19.325"/>
			</g>
			<g>
				
					<polygon style="fill:#303030;stroke:#303030;stroke-width:1.5;stroke-linecap:round;stroke-linejoin:round;stroke-miterlimit:10;" points="
					131.137,311.997 120.169,306.521 115.544,320.783 121.788,321.704 				"/>
				
					<path style="fill:#FF95FB;stroke:#303030;stroke-width:1.5;stroke-linecap:round;stroke-linejoin:round;stroke-miterlimit:10;" d="
					M111.172,314.274l1.675-5.165c0.839-2.588,3.667-3.953,6.215-3.002l1.107,0.413l-4.625,14.262l-1.499-0.56
					C111.649,319.328,110.383,316.706,111.172,314.274z"/>
			</g>
			<g>
				
					<rect x="244.561" y="373.727" style="fill:#303030;stroke:#303030;stroke-width:1.5;stroke-linecap:round;stroke-linejoin:round;stroke-miterlimit:10;" width="67.595" height="5.659"/>
				
					<polygon style="fill:#303030;stroke:#303030;stroke-width:1.5;stroke-linecap:round;stroke-linejoin:round;stroke-miterlimit:10;" points="
					225.412,379.386 208.745,352.518 246.589,325.653 246.589,379.386 				"/>
			</g>
			<g>
				<path style="fill:#303030;" d="M406.216,319.07l-14.833-1.196c-5.397-0.435-9.555-4.942-9.555-10.357l0,0
					c0-5.415,4.158-9.922,9.555-10.357l14.833-1.196C411.53,303.666,411.53,311.368,406.216,319.07z"/>
				<path style="fill:#FFFFFF;" d="M404.651,316.588c4.173-6.048,4.173-12.095,0-18.143
					C401.946,304.493,401.946,310.541,404.651,316.588z"/>
			</g>
			
				<path style="fill:#303030;stroke:#303030;stroke-width:1.5;stroke-linecap:round;stroke-linejoin:round;stroke-miterlimit:10;" d="
				M99.069,376.061l-0.505-0.356c-0.793-0.558-0.982-1.654-0.424-2.446l20.774-29.49c0.558-0.793,1.654-0.982,2.446-0.424
				l0.505,0.356c0.793,0.558,0.983,1.653,0.424,2.446l-20.774,29.49C100.957,376.43,99.862,376.62,99.069,376.061z"/>
			<g>
				<g>
					
						<path style="fill:#303030;stroke:#303030;stroke-width:1.5;stroke-linecap:round;stroke-linejoin:round;stroke-miterlimit:10;" d="
						M156.972,313.405c-0.424,0-0.846-0.178-1.144-0.524l-31.514-36.663c-0.543-0.632-0.471-1.584,0.161-2.128
						c0.631-0.542,1.583-0.471,2.126,0.16l31.514,36.663c0.543,0.632,0.471,1.584-0.161,2.128
						C157.669,313.286,157.32,313.405,156.972,313.405z"/>
				</g>
				<g>
					
						<path style="fill:#303030;stroke:#303030;stroke-width:1.5;stroke-linecap:round;stroke-linejoin:round;stroke-miterlimit:10;" d="
						M137.654,313.405c-0.424,0-0.846-0.178-1.144-0.524l-31.514-36.663c-0.543-0.632-0.471-1.584,0.161-2.128
						c0.63-0.542,1.582-0.471,2.126,0.16l31.514,36.663c0.543,0.632,0.471,1.584-0.161,2.128
						C138.352,313.286,138.002,313.405,137.654,313.405z"/>
				</g>
				
					<path style="fill:#303030;stroke:#303030;stroke-width:1.5;stroke-linecap:round;stroke-linejoin:round;stroke-miterlimit:10;" d="
					M83.433,272.734h64.222c1.38,0,2.499,1.119,2.499,2.499l0,0c0,1.38-1.119,2.499-2.499,2.499H83.433
					c-1.38,0-2.499-1.119-2.499-2.499l0,0C80.934,273.853,82.053,272.734,83.433,272.734z"/>
				<g>
					
						<path style="fill:#303030;stroke:#303030;stroke-width:1.5;stroke-linecap:round;stroke-linejoin:round;stroke-miterlimit:10;" d="
						M130.345,272.734H69.557c-2.462,0-4.457-2.363-4.457-5.277l0.004-61.069c0-2.915,1.996-5.277,4.458-5.277h60.788
						c2.462,0,4.457,2.363,4.457,5.277l-0.004,61.069C134.802,270.372,132.807,272.734,130.345,272.734z"/>
					
						<path style="fill:#F55571;stroke:#F55571;stroke-width:1.5;stroke-linecap:round;stroke-linejoin:round;stroke-miterlimit:10;" d="
						M154.017,272.734H93.229c-2.462,0-4.457-2.363-4.457-5.277l0.004-61.069c0-2.915,1.996-5.277,4.458-5.277h60.788
						c2.462,0,4.457,2.363,4.457,5.277l-0.004,61.069C158.475,270.372,156.479,272.734,154.017,272.734z"/>
				</g>
				<g>
					
						<path style="fill:#303030;stroke:#303030;stroke-width:1.5;stroke-linecap:round;stroke-linejoin:round;stroke-miterlimit:10;" d="
						M124.091,200.089H63.303c-2.462,0-4.457-2.363-4.457-5.277l0.004-19.986c0-2.915,1.996-5.277,4.458-5.277h60.788
						c2.462,0,4.457,2.363,4.457,5.277l-0.004,19.986C128.549,197.727,126.553,200.089,124.091,200.089z"/>
					
						<path style="fill:#FF95FB;stroke:#FF95FB;stroke-width:1.5;stroke-linecap:round;stroke-linejoin:round;stroke-miterlimit:10;" d="
						M144.042,200.089H83.254c-2.462,0-4.457-2.363-4.457-5.277l0.004-19.986c0-2.915,1.996-5.277,4.458-5.277h60.788
						c2.462,0,4.457,2.363,4.457,5.277l-0.004,19.986C148.499,197.727,146.504,200.089,144.042,200.089z"/>
				</g>
				<g>
					
						<path style="fill:none;stroke:#FFFFFF;stroke-width:1.5;stroke-linecap:round;stroke-linejoin:round;stroke-miterlimit:10;" d="
						M120.706,167.875h3.853c2.595,0,4.699,2.104,4.699,4.699v100.945"/>
					
						<path style="fill:none;stroke:#FFFFFF;stroke-width:1.5;stroke-linecap:round;stroke-linejoin:round;stroke-miterlimit:10;" d="
						M114.536,167.875h3.853c2.595,0,4.699,2.104,4.699,4.699v100.945"/>
				</g>
			</g>
			<g>
				
					<path style="fill:#FFFFFF;stroke:#303030;stroke-width:1.5;stroke-linecap:round;stroke-linejoin:round;stroke-miterlimit:10;" d="
					M407.099,286.566l-63.191,100.948c-7.263,11.603-20.031,18.601-33.72,18.482l-76.599-0.667c-4.533-0.057-8.177-3.747-8.177-8.28
					v-17.663h72.532c4.928,0,9.344-3.045,11.095-7.651l26.023-68.437c1.393-3.664,1.403-7.711,0.026-11.382l-5.4-14.401
					c-1.464-3.904-1.248-8.32,0.897-11.895c1.176-1.96,2.966-3.803,5.691-4.926c8.177-3.367,19.479-3.056,27.896-1.528
					c8.417,1.528,11.784,3.452,12.505,1.769c0.721-1.683-4.755-4.45-8.843-5.412l0.907-1.803c0,0,11.543,2.164,24.289,11.062
					c7.637,5.332,11.907,10.923,14.103,14.548C408.485,281.562,408.483,284.354,407.099,286.566z"/>
				
					<path style="fill:#00826F;stroke:#00826F;stroke-width:1.5;stroke-linecap:round;stroke-linejoin:round;stroke-miterlimit:10;" d="
					M393.031,264.783c-12.746-8.898-26.056-12.396-26.056-12.396l-0.523,2.113c4.088,0.962,12.208,4.359,10.226,6.435
					c-1.265,1.325-4.088-0.241-12.505-1.769c-8.417-1.528-19.72-1.839-27.896,1.528c-2.725,1.122-4.516,2.966-5.691,4.926
					c-0.243,0.405-0.454,0.824-0.648,1.249c15.874,7.002,29.433,13.678,41.173,27.655c9.16,10.905,15.821,21.171,10.091,33.414l0,0
					l25.898-41.372c1.385-2.213,1.385-5.007,0.032-7.24C404.935,275.701,400.665,270.112,393.031,264.783z"/>
				<path style="fill:none;stroke:#303030;stroke-width:1.5;stroke-linecap:round;stroke-linejoin:round;stroke-miterlimit:10;" d="
					M359.666,261.487c8.838,3.361,18.541,9.842,27.868,19.685c11.573-3.755,15.925-6.943,15.925-6.943"/>
				<g>
					
						<path style="fill:#303030;stroke:#303030;stroke-width:1.5;stroke-linecap:round;stroke-linejoin:round;stroke-miterlimit:10;" d="
						M343.962,265.576c0,0.779-0.632,1.41-1.411,1.41c-0.779,0-1.411-0.632-1.411-1.41c0-0.779,0.632-1.411,1.411-1.411
						C343.331,264.166,343.962,264.797,343.962,265.576z"/>
					
						<path style="fill:#303030;stroke:#303030;stroke-width:1.5;stroke-linecap:round;stroke-linejoin:round;stroke-miterlimit:10;" d="
						M352.349,265.576c0,0.779-0.632,1.41-1.411,1.41c-0.779,0-1.411-0.632-1.411-1.41c0-0.779,0.632-1.411,1.411-1.411
						C351.717,264.166,352.349,264.797,352.349,265.576z"/>
				</g>
				<path style="fill:none;stroke:#303030;stroke-width:1.5;stroke-linecap:round;stroke-linejoin:round;stroke-miterlimit:10;" d="
					M358.88,295.964c12.229,17.441,8.067,27.513,1.752,34.737c-9.179,10.5-24.966,25.957-24.966,25.957"/>
				<path style="fill:none;stroke:#FFFFFF;stroke-width:1.5;stroke-linecap:round;stroke-linejoin:round;stroke-miterlimit:10;" d="
					M404.391,282.472c-2.197-3.625-6.466-9.214-14.1-14.543c-2.926-2.042-5.788-3.73-8.462-5.118"/>
			</g>
			<g>
				
					<path style="fill:#FFFFFF;stroke:#303030;stroke-width:1.5;stroke-linecap:round;stroke-linejoin:round;stroke-miterlimit:10;" d="
					M100.657,345.389l72.881,27.819c2.463,0.94,5.233,0.588,7.383-0.938l65.667-46.617c3.155-2.24,4.844-6.017,4.41-9.861
					l-0.152-1.345c-0.541-4.792-4.241-8.62-9.012-9.324l-72.35-10.677c-8.862-1.308-17.881,0.952-25.079,6.283l-37.223,27.569
					c-1.111,0.823-1.181,2.46-0.144,3.375l2.269,2.002l-9.313,6.898C98.237,341.876,98.612,344.608,100.657,345.389z"/>
				
					<line style="fill:#FFFFFF;stroke:#303030;stroke-width:1.5;stroke-linecap:round;stroke-linejoin:round;stroke-miterlimit:10;" x1="112.514" y1="339.72" x2="179.575" y2="365.318"/>
				
					<path style="fill:#00826F;stroke:#00826F;stroke-width:1.5;stroke-linecap:round;stroke-linejoin:round;stroke-miterlimit:10;" d="
					M250.847,314.447c-0.541-4.792-4.241-8.62-9.012-9.324l-72.35-10.677c-8.862-1.308-17.881,0.952-25.079,6.283l-37.223,27.569
					c-1.111,0.823-1.181,2.46-0.144,3.375l2.269,2.002l33.638-24.914c2.347-1.739,5.117-2.818,8.022-3.126
					c2.507-0.266,5.033,0.048,7.398,0.922c8.126,3.004,27.97,10.344,37.513,13.904c25.453,9.497,23.717,24.354,9.812,34.225l0,0
					l40.898-29.033c3.155-2.24,4.844-6.017,4.41-9.861L250.847,314.447z"/>
				
					<path style="fill:#303030;stroke:#303030;stroke-width:1.5;stroke-linecap:round;stroke-linejoin:round;stroke-miterlimit:10;" d="
					M149.189,291.45l103.85,15.326c3.317,0.49,6.296-2.081,6.296-5.435v-15.326c0-3.034-2.46-5.493-5.494-5.493h-103.85
					c-3.034,0-5.493,2.46-5.493,5.493l0,0C144.497,288.739,146.494,291.052,149.189,291.45z"/>
				
					<line style="fill:none;stroke:#FFFFFF;stroke-width:1.5;stroke-linecap:round;stroke-linejoin:round;stroke-miterlimit:10;" x1="165.745" y1="300.14" x2="239.608" y2="311.041"/>
				<path style="fill:none;stroke:#303030;stroke-width:1.5;stroke-linecap:round;stroke-linejoin:round;stroke-miterlimit:10;" d="
					M197.027,314.299c19.211,3.316,36.287,6.163,40.081,7.111c3.795,0.949,7.038,5.961,0,10.911"/>
			</g>
			<g>
				
					<path style="fill:#00826F;stroke:#00826F;stroke-width:1.5;stroke-linecap:round;stroke-linejoin:round;stroke-miterlimit:10;" d="
					M355.906,216.506c-12.839,0.583-23.681,3.894-23.552,17.798c0.129,13.904,14.606,15.216,26.144,15.461
					c14.527,0.309,23.028-0.81,27.794-5.243c5.206-4.843,1.474-17.201-6.041-22.61C374.147,217.519,366.285,216.034,355.906,216.506
					z"/>
				
					<path style="fill:#FFFFFF;stroke:#303030;stroke-width:1.5;stroke-linecap:round;stroke-linejoin:round;stroke-miterlimit:10;" d="
					M373.345,218.398c-0.608,0.258-1.156,0.601-1.608,1.057c-1.272,1.281-1.434,3.346-0.92,5.077
					c1.801,6.066,8.545,11.413,7.284,18.217c-0.503,2.711-2.568,4.927-4.969,6.283c-0.24,0.136-0.486,0.259-0.733,0.381
					c6.466-0.641,10.91-2.117,13.892-4.891c5.206-4.843,1.474-17.201-6.041-22.61C378.166,220.412,375.87,219.258,373.345,218.398z"
					/>
				<path style="fill:none;stroke:#303030;stroke-width:1.5;stroke-linecap:round;stroke-linejoin:round;stroke-miterlimit:10;" d="
					M340.085,224.626c7.128-3.857,15.552-5.265,23.546-3.936c0.365,0.061,0.756,0.141,1.011,0.409
					c0.258,0.271,0.392,0.662,0.392,1.037c0.003,6.857,2.387,8.295,5.867,13.724c1.929,3.009,1.929,5.864-0.356,8.102"/>
			</g>
			<g>
				
					<circle style="fill:#FFFFFF;stroke:#303030;stroke-width:1.5;stroke-linecap:round;stroke-linejoin:round;stroke-miterlimit:10;" cx="225.412" cy="379.386" r="11.522"/>
				
					<path style="fill:#F55571;stroke:#F55571;stroke-width:1.5;stroke-linecap:round;stroke-linejoin:round;stroke-miterlimit:10;" d="
					M231.084,379.386c0,3.132-2.539,5.672-5.672,5.672c-3.132,0-5.672-2.539-5.672-5.672c0-3.132,2.539-5.672,5.672-5.672
					C228.544,373.714,231.084,376.253,231.084,379.386z"/>
			</g>
			<g>
				
					<circle style="fill:#FFFFFF;stroke:#303030;stroke-width:1.5;stroke-linecap:round;stroke-linejoin:round;stroke-miterlimit:10;" cx="146.044" cy="298.743" r="9.18"/>
				
					<path style="fill:#F55571;stroke:#F55571;stroke-width:1.5;stroke-linecap:round;stroke-linejoin:round;stroke-miterlimit:10;" d="
					M150.563,298.743c0,2.496-2.023,4.519-4.519,4.519s-4.519-2.023-4.519-4.519s2.023-4.519,4.519-4.519
					S150.563,296.248,150.563,298.743z"/>
			</g>
			<g>
				
					<path style="fill:#303030;stroke:#303030;stroke-width:1.5;stroke-linecap:round;stroke-linejoin:round;stroke-miterlimit:10;" d="
					M341.686,233.449v0.914c0,1.434-1.162,2.596-2.596,2.596h-20.995v-6.106h20.995
					C340.524,230.853,341.686,232.015,341.686,233.449z"/>
				<path style="fill:#F55571;" d="M317.781,242.067h-0.613c-0.962,0-1.741-0.78-1.741-1.741v-12.841
					c0-0.962,0.78-1.741,1.741-1.741h0.613c0.962,0,1.741,0.78,1.741,1.741v12.841C319.522,241.288,318.743,242.067,317.781,242.067
					z"/>
				<path style="fill:#F55571;" d="M315.427,238.329h-21.629c-1.066,0-1.93-0.864-1.93-1.93v-4.987c0-1.066,0.864-1.93,1.93-1.93
					h21.629V238.329z"/>
				
					<line style="fill:none;stroke:#303030;stroke-width:1.5;stroke-linecap:round;stroke-linejoin:round;stroke-miterlimit:10;" x1="315.427" y1="229.482" x2="315.427" y2="238.329"/>
				<g>
					
						<path style="fill:none;stroke:#303030;stroke-width:1.5;stroke-linecap:round;stroke-linejoin:round;stroke-miterlimit:10;" d="
						M329.891,211.359c3.559,5.238,2.023,11.734-2.958,21.683"/>
					
						<path style="fill:#303030;stroke:#303030;stroke-width:1.5;stroke-linecap:round;stroke-linejoin:round;stroke-miterlimit:10;" d="
						M324.863,203.182c-0.196,0.34-0.365,0.679-0.503,1.007c-0.966,2.283-1.678,4.899-1.984,7.374c-0.456,3.688,1.688,6.737,5,3.475
						c2.757-2.715,10.34-15.121,3.172-15.731C328.163,199.103,326.033,201.153,324.863,203.182z"/>
				</g>
			</g>
		</g>
		<g id="Leg_1">
			<g id="Leg_00000127745981631497441370000017873746457602222725_">
				<g>
					<path style="fill:#FFC4B0;" d="M283.307,281.33c2.358-15.754,0.063-25.299-10.949-30.805
						c-7.013-3.507-38.597-9.507-38.597-9.507s-3.318-6.406-19.383-10.149h-40.577c-8.343,21.556-7.126,37.996,8.394,47.271
						c14.088,8.419,46.907,6.866,53.423,7.031c9.541,0.241,12.599,0.241,16.484,0.241c-0.802,1.95-1.663,4.267-2.443,6.85
						c-1.945,6.44-1.553,21.778-1.857,28.461c-0.693,15.25-0.298,18.415-1.928,25.631c-0.647,2.864-3.769,5.398-4.527,9.892
						c-0.373,2.21-0.583,5.417,0.991,7.749c1.281,1.898,3.384,2.816,5.673,2.886c5.847,0.178,11.74-0.58,17.527,0.269
						c3.502,0.514,6.889,1.606,10.346,2.366c3.217,0.707,6.497,1.125,9.788,1.249c3.618,0.136,7.297-0.115,10.79-1.117
						c2.753-0.79,7.786-2.411,8.15-5.777c0.321-2.972-3.225-3.901-5.46-4.649c-6.064-2.03-12.057-4.369-17.655-7.484
						c-5.578-3.104-12.319-7.493-11.173-14.36c0.891-5.336,1.8-9.823,5.043-19.18S281.268,294.956,283.307,281.33z"/>
				</g>
				<path style="fill:none;stroke:#303030;stroke-width:1.5;stroke-linecap:round;stroke-linejoin:round;stroke-miterlimit:10;" d="
					M270.324,337.378c0.891-5.336,1.8-9.823,5.043-19.18s6.039-24.73,9.831-37.976"/>
				<path style="fill:none;stroke:#303030;stroke-width:1.5;stroke-linecap:round;stroke-linejoin:round;stroke-miterlimit:10;" d="
					M259.508,281.33c-2.361,1.599-4.834,3.139-7.405,4.083"/>
				<path style="fill:#303030;" d="M247.534,327.371c-1.206,0.334-1.523,0.877-1.351,3.385c0.172,2.508,0.255,9.861-1.835,14.753
					s-3.886,9.156-3.615,14.507c0.271,5.35,3.03,8.276,10.47,8.611c7.44,0.334,9.53-1.338,14.128-0.585s12.791,4.096,24.244,3.511
					c11.453-0.585,15.311-4.619,15.8-7.524c0.489-2.905-1.421-4.514-6.772-6.019c-5.35-1.505-12.825-4.079-17.448-7.39
					c-4.623-3.311-7.967-5.819-9.053-7.909s-0.584-5.081,0.298-7.974c0.982-3.217,1.825-5.53,0.136-6.093l-0.669,2.117
					c0,0-2.065,3.653-13.087,3.438c-8.584-0.168-11.344-4.027-11.344-4.027L247.534,327.371z"/>
				<g>
					<path style="fill:#F55571;" d="M283.928,369.943c5.512,0,14.047,0,17.375,0s5.92-2.691,5.86-3.845
						c-0.264-5.088-2.36-7.295-9.82-9.263c-4.539-1.198-7.146-2.199-11.067-4.476c-4.542-2.638-12.632-9.127-14.477-10.667
						c-2.403-2.005-8.38-1.687-11.274,2.504L283.928,369.943z"/>
					
						<path style="fill:none;stroke:#303030;stroke-width:1.5;stroke-linecap:round;stroke-linejoin:round;stroke-miterlimit:10;" d="
						M307.163,366.097c-0.264-5.088-2.36-7.295-9.82-9.263c-4.539-1.198-7.146-2.199-11.067-4.476
						c-2.777-1.612-6.497-4.368-9.688-6.849"/>
					<g>
						<path style="fill:#F55571;" d="M283.928,369.943c-0.36-2.791-1.203-7.845-1.694-10.616c-0.118-0.667-0.251-1.36-0.658-1.901
							c-0.232-0.31-0.542-0.552-0.848-0.788c-6.105-4.71-12.691-8.795-19.623-12.173c-1.157-0.564-2.422-1.122-3.688-0.887
							c-1.007,0.187-1.85,0.849-2.649,1.489c-1.484,1.191-3.662,3.787-7.125,3.664c-3.436-0.122-2.446-4.608-2.446-4.608
							s0.191-1.405,0.429-3.083c-2.422-0.266-2.618,0.818-3.01,2.086c-0.569,1.836-0.79,4.099-1.574,8.355
							c-0.568,3.085-1.181,3.405-1.181,13.912c0.562,3.843,4.429,4.549,10.405,4.549
							C257.955,369.943,283.928,369.943,283.928,369.943z"/>
					</g>
					
						<path style="fill:none;stroke:#303030;stroke-width:1.5;stroke-linecap:round;stroke-linejoin:round;stroke-miterlimit:10;" d="
						M280.042,359.152c2.256-2.905,7.072-5.658,11.312-4.242"/>
					
						<path style="fill:none;stroke:#303030;stroke-width:1.5;stroke-linecap:round;stroke-linejoin:round;stroke-miterlimit:10;" d="
						M284.181,351.045c-2.018,1.103-3.15,2.51-4.518,4.781"/>
					
						<path style="fill:none;stroke:#303030;stroke-width:1.5;stroke-linecap:round;stroke-linejoin:round;stroke-miterlimit:10;" d="
						M286.276,352.358c-2.596-0.113-6.268,0.635-12.467,1.68"/>
					
						<path style="fill:none;stroke:#303030;stroke-width:1.5;stroke-linecap:round;stroke-linejoin:round;stroke-miterlimit:10;" d="
						M279.063,347.626c-2.018,1.103-2.973,2.22-4.342,4.491"/>
					
						<path style="fill:none;stroke:#303030;stroke-width:1.5;stroke-linecap:round;stroke-linejoin:round;stroke-miterlimit:10;" d="
						M281.157,348.94c-2.596-0.113-6.268,0.635-12.467,1.68"/>
					
						<path style="fill:none;stroke:#303030;stroke-width:1.5;stroke-linecap:round;stroke-linejoin:round;stroke-miterlimit:10;" d="
						M274.053,343.66c-2.018,1.103-3.258,3.058-4.627,5.328"/>
					
						<path style="fill:none;stroke:#303030;stroke-width:1.5;stroke-linecap:round;stroke-linejoin:round;stroke-miterlimit:10;" d="
						M276.038,345.521c-2.596-0.113-6.268,0.635-12.467,1.68"/>
					
						<path style="fill:none;stroke:#303030;stroke-width:1.5;stroke-linecap:round;stroke-linejoin:round;stroke-miterlimit:10;" d="
						M240.733,353.437c0.581,0.819,1.315,1.508,2.253,1.992c1.876,0.968,4.134,1.166,6.149,0.539
						c3.175-0.987,5.62-3.864,8.911-4.339c2.394-0.346,4.759,0.659,6.932,1.722c4.014,1.964,10.311,5.629,11.124,6.873
						c0.812,1.244,1.474,5.133,2.112,8.881"/>
					
						<path style="fill:#FFFFFF;stroke:#303030;stroke-width:1.5;stroke-linecap:round;stroke-linejoin:round;stroke-miterlimit:10;" d="
						M304.878,373.802c-2.959,0.798-19.309,0.684-19.309,0.684s-27.191,0-33.411,0c-6.22,0-9.53-0.197-11.116-2.393
						c-0.935-1.294-1.45-3.375-1.181-6.701c2.584,2.28,1.924,2.927,12.551,2.927c10.628,0,36.563,0.082,42.197,0
						c3.924-0.057,10.021,0.47,12.553-2.223C308.091,367.336,309.391,372.586,304.878,373.802z"/>
				</g>
			</g>
			<g id="Pant_00000075878550605366785440000016250928708228953732_">
				<path style="fill:#F55571;" d="M285.788,271.394c-0.388,10.831-2.117,25.637-2.27,36.48c-0.023,1.599-0.059,3.211-0.329,4.786
					c-0.376,2.281-0.776,3.681-1.776,5.539l0.023,0.024c-0.106-0.035-0.212-0.082-0.318-0.129c-0.964,1.94-2.54,4.328-6.762,5.233
					c-12.172,1.823-25.614-1.176-29.248-5.774c0,0-2.058-2.493-2.364-6.503c-0.4-5.268,1.27-23.356,1.27-23.356
					s-12.924-0.223-21.192-0.341c-8.279-0.129-30.565,0.694-45.112-9.208c-15.029-10.243-10.443-30.988-6.962-47.276l61.106-0.447
					l3.963,9.067c15.029,2.834,25.037,4.88,36.786,9.055c5.128,1.823,9.773,6.08,11.795,11.384
					C285.776,263.549,285.929,267.513,285.788,271.394z"/>
				<path style="fill:none;stroke:#303030;stroke-width:1.5;stroke-linecap:round;stroke-linejoin:round;stroke-miterlimit:10;" d="
					M235.816,239.488c15.036,2.833,25.034,4.881,36.794,9.057c5.117,1.817,9.77,6.073,11.788,11.383
					c1.377,3.622,1.535,7.59,1.393,11.462c-0.396,10.834-2.115,25.645-2.27,36.485c-0.023,1.602-0.062,3.206-0.327,4.786
					c-0.383,2.282-0.783,3.683-1.784,5.535"/>
				<path style="fill:none;stroke:#303030;stroke-width:1.5;stroke-linecap:round;stroke-linejoin:round;stroke-miterlimit:10;" d="
					M248.379,274.83c-2.776,2.572-5.006,8.96-5.432,14.457"/>
			</g>
		</g>
		<g id="Chest_00000140694954922322814220000008014276417017374904_">
			<path id="Chest_00000083788337307093415020000012701795635905042066_" style="fill:#00826F;" d="M257.768,195.266
				c2.648-10.637,4.7-22.006-3.507-32.121c-4.957-6.108-23.498-8.153-34.152-5.763c-13.863,3.11-23.31,8.904-32.899,27.347
				c-7.086,13.628-14.654,27.261-18.785,43.496c-0.681,2.676-0.498,6.116,1.102,8.069c1.6,1.954,9.839,10.42,32.273,10.498
				c46.583,0.162,49.931-11.044,49.931-11.044s3.077-6.892,1.489-21.255C253.22,214.496,256.077,202.058,257.768,195.266z"/>
			<g>
				<path style="fill:#00826F;" d="M228.566,148.273c0,0-12.951-0.576-18.223,0.763c-5.272,1.339-6.283,4.881-6.283,4.881
					s-5.968,2.427-11.671,8.62c-7.255,7.878,1.5,11.551,1.5,11.551l29.451-15.995L228.566,148.273z"/>
				<path style="fill:#303030;" d="M226.843,151.511c-8.709-0.755-14.115-0.18-14.883,2.412c-0.768,2.592,10.469,5.881,10.469,5.881
					L226.843,151.511z"/>
				<path style="fill:none;stroke:#303030;stroke-width:1.5;stroke-linecap:round;stroke-linejoin:round;stroke-miterlimit:10;" d="
					M226.843,167.619c-17.804-10.345-30.149,2.543-32.954,6.469"/>
				<path style="fill:none;stroke:#303030;stroke-width:1.5;stroke-linecap:round;stroke-linejoin:round;stroke-miterlimit:10;" d="
					M204.817,158.784c-1.316-1.078-1.988-2.78-1.539-4.748"/>
			</g>
		</g>
		<g id="Head_00000004540071201500274490000012857711356443634067_">
			<g id="Head_00000080206572328478637940000003621680001202927270_">
				
					<ellipse transform="matrix(0.1602 -0.9871 0.9871 0.1602 81.455 341.9182)" style="fill:#303030;" cx="241.666" cy="123.09" rx="21.879" ry="21.88"/>
				<g>
					<g>
						<path style="fill:#FFC4B0;" d="M263.489,132.842c0.11-3.104,0.127-3.581,0.309-7.545c0.315-6.841-2.471-11.835-2.471-11.835
							c-2.289-2.26-16.554-7.643-26.379,1.389c1.195,6.189-1.954,10.793-1.956,10.795c1.272,2.026,1.843,5.177,1.298,7.281
							c-0.522,2.012-3.298,1.447-4.317-0.421c-1.151-2.11-3.832-3.97-6.298-4.187c-3.212-0.283-5.521,1.402-6.146,3.691
							c-0.741,2.714,0.93,4.879,3.084,5.995c2.153,1.117,5.106,1.368,7.276,0.213c-0.202,3.426,0.656,5.766,1.959,7.649
							l-6.994,13.139c0,0,9.793,7.364,18.21,9.441c7.701,1.9,4.547-6.069,4.547-6.069l2.58-6.211
							c3.643,0.306,6.945-0.105,9.983-1.772c3.931-2.156,5.547-5.951,5.693-11.15C263.946,140.44,263.39,135.636,263.489,132.842z"
							/>
					</g>
				</g>
				<path style="fill:none;stroke:#303030;stroke-width:1.5;stroke-linecap:round;stroke-linejoin:round;stroke-miterlimit:10;" d="
					M246.346,142.236c2.433,1.518,5.579,1.656,7.943,1.016"/>
				<g>
					<g>
						<path style="fill:#FFFFFF;" d="M256.195,128.206c0.379-1.34,1.514-2.033,2.769-2.176c1.255-0.143,3.049,0.162,3.365,2.176
							C261.85,130.25,257.869,130.948,256.195,128.206z"/>
						<path style="fill:#303030;" d="M261.37,129.146c-0.428,0.884-1.528,1.242-2.456,0.8c-0.928-0.442-1.333-1.517-0.904-2.401
							c0.429-0.884,1.528-1.242,2.456-0.8C261.394,127.187,261.798,128.262,261.37,129.146z"/>
						<polygon style="fill:#FFFFFF;" points="257.881,127.495 259.69,128.345 257.633,128.489 						"/>
						
							<path style="fill:none;stroke:#303030;stroke-width:1.5;stroke-linecap:round;stroke-linejoin:round;stroke-miterlimit:10;" d="
							M262.534,127.824c-0.771-1.461-2.203-1.785-3.457-1.642c-1.255,0.143-2.541,1.079-2.882,2.024"/>
					</g>
					<g>
						<path style="fill:#FFFFFF;" d="M241.064,128.044c0.478-1.528,1.966-2.303,3.62-2.447c1.654-0.143,4.029,0.236,4.479,2.548
							C248.564,130.478,243.32,131.213,241.064,128.044z"/>
						<path style="fill:#303030;" d="M247.966,129.288c-0.49,1.011-1.748,1.421-2.809,0.915c-1.061-0.506-1.525-1.735-1.034-2.746
							c0.49-1.011,1.748-1.421,2.809-0.915C247.993,127.047,248.456,128.277,247.966,129.288z"/>
						<polygon style="fill:#FFFFFF;" points="243.975,127.399 246.044,128.372 243.691,128.537 						"/>
						
							<path style="fill:none;stroke:#303030;stroke-width:1.5;stroke-linecap:round;stroke-linejoin:round;stroke-miterlimit:10;" d="
							M249.427,127.711c-1.041-1.686-2.938-2.081-4.592-1.938c-1.654,0.143-3.338,1.194-3.772,2.27"/>
					</g>
					
						<path style="fill:none;stroke:#303030;stroke-width:1.5;stroke-linecap:round;stroke-linejoin:round;stroke-miterlimit:10;" d="
						M253.544,123.669c1.355,3.053,3.215,6.703,4.072,8.78c0.926,2.244,0.105,6.039-5.142,5.092"/>
					<g>
						
							<path style="fill:none;stroke:#303030;stroke-width:1.5;stroke-linecap:round;stroke-linejoin:round;stroke-miterlimit:10;" d="
							M220.954,132.189c0.602-0.379,2.048-0.62,3.471-0.162c1.423,0.458,2.564,1.648,2.917,3.042"/>
						
							<path style="fill:none;stroke:#303030;stroke-width:1.5;stroke-linecap:round;stroke-linejoin:round;stroke-miterlimit:10;" d="
							M223.339,133.876c0.444-0.276,1.99-0.957,3.422-0.09"/>
					</g>
					
						<path style="fill:none;stroke:#303030;stroke-width:1.5;stroke-linecap:round;stroke-linejoin:round;stroke-miterlimit:10;" d="
						M239.681,123.796c1.986-2.216,5.488-3.206,8.622-2.526"/>
					
						<path style="fill:none;stroke:#303030;stroke-width:1.5;stroke-linecap:round;stroke-linejoin:round;stroke-miterlimit:10;" d="
						M257.708,121.605c2.653-0.45,5.092,0.208,6.037,1.392"/>
				</g>
				<path style="fill:none;stroke:#303030;stroke-width:1.5;stroke-linecap:round;stroke-linejoin:round;stroke-miterlimit:10;" d="
					M222.853,159.006c0,0,10.183,7.78,18.21,9.441c6.011,1.243,5.515-2.869,4.902-5.027"/>
				<g>
					<path style="fill:#303030;" d="M248.191,156.166c-9.136-1.577-12.859-5.238-15.545-8.256
						c0.694,4.98,6.215,10.522,13.984,12.014L248.191,156.166z"/>
				</g>
			</g>
			<g id="Helmet">
				<path style="fill:#F55571;" d="M218.134,140.623l6.677,4.194c2.826,1.775,6.514,1.296,8.792-1.142l0,0
					c1.844-1.973,2.382-4.834,1.379-7.341l-3.303-8.262l4.294-9.13c0,0,18.247-6.645,30.635-1.697
					c-2.12-19.221-26.776-27.334-42.626-15.468c-16.793,12.573-10.765,30.419-8.251,36.087
					C216.238,139.006,217.077,139.959,218.134,140.623z"/>
				<path style="fill:none;stroke:#303030;stroke-width:1.5;stroke-linecap:round;stroke-linejoin:round;stroke-miterlimit:10;" d="
					M218.134,140.623l6.677,4.194c2.826,1.775,6.514,1.296,8.792-1.142l0,0c1.844-1.973,2.382-4.834,1.379-7.341l-3.303-8.262
					l4.294-9.13c0,0,18.247-6.645,30.635-1.697"/>
				<g>
					<path style="fill:#303030;" d="M228.566,138.583c0,0.952-0.771,1.723-1.723,1.723c-0.952,0-1.723-0.771-1.723-1.723
						c0-0.952,0.771-1.723,1.723-1.723C227.795,136.859,228.566,137.631,228.566,138.583z"/>
					<path style="fill:#303030;" d="M222.575,135.866c0,0.952-0.771,1.723-1.723,1.723c-0.952,0-1.723-0.771-1.723-1.723
						c0-0.952,0.771-1.723,1.723-1.723C221.804,134.143,222.575,134.915,222.575,135.866z"/>
				</g>
				<path style="fill:#303030;" d="M235.974,118.942c9.587,2.401,19.926,5.08,28.515,4.782c8.589-0.298,10.78-2.386,2.12-6.478
					C259.487,113.27,245.679,115.219,235.974,118.942z"/>
				<path style="fill:none;stroke:#FFFFFF;stroke-width:1.5;stroke-linecap:round;stroke-linejoin:round;stroke-miterlimit:10;" d="
					M240.613,100.143c9.994-0.012,17.095,4.068,20.791,11.658"/>
			</g>
		</g>
		<g id="Arm_00000047033160117312274600000006492569733776443540_">
			<g>
				<path style="fill:#FFC4B0;" d="M211.862,171.464c8.148-1.217,10.885,1.208,17.238,17.832
					c6.129,16.037,6.148,16.014,12.261,32.672c5.426-0.121,19.824,0.701,25.252,0.714c5.126,0.012,10.252,0.018,15.378,0.06
					c4.635,0.038,9.266-1.065,13.879-1.586c3.708-0.419,7.711-1.671,10.934,0.21c1.174,0.685,2.634,1.858,3.673,3.713
					c0.855,1.527,1.392,3.197,1.68,4.923c0.127,0.759,0.127,1.581-0.263,2.245c-0.457,0.777-2.185,1.591-2.824,0.634
					c0.081,1.155,0.144,2.339-0.225,3.456c-0.368,1.114-1.244,2.131-2.397,2.346c-1.153,0.215-2.486-0.635-2.512-1.808
					c-0.136,1.046-0.488,2.107-1.237,2.85c-0.749,0.743-1.96,1.083-2.898,0.601c-1.457-0.747-1.484-2.771-1.442-4.408
					c0.108-4.129-4.247-4.427-6.634-1.64c-1.453,1.697-1.83,2.845-3.544,3.851c-1.645,0.966-3.295,1.184-5.598,1.077
					c-2.303-0.108-3.979-0.686-6.668-0.336c-5.442,0.709-12.025,2.253-18.617,3.343c-6.089,1.007-12.661,2.628-18.872,2.291
					c-5.942-0.322-14.383,3.868-20.557-10.165c-6.839-15.546-13.076-33.722-13.076-33.722
					C202.254,189.166,203.751,176.887,211.862,171.464z"/>
				<path style="fill:none;stroke:#303030;stroke-width:1.5;stroke-linecap:round;stroke-linejoin:round;stroke-miterlimit:10;" d="
					M299.674,227.015c1.736,1.072,3.324,2.679,4.033,4.592c0.708,1.913,0.569,4.131,0.541,6.171"/>
				<path style="fill:none;stroke:#303030;stroke-width:1.5;stroke-linecap:round;stroke-linejoin:round;stroke-miterlimit:10;" d="
					M303.547,223.581c1.656,0.956,2.931,2.488,3.803,4.189c0.872,1.702,1.365,3.574,1.706,5.456"/>
			</g>
			
				<path style="fill:#FFFFFF;stroke:#303030;stroke-width:1.5;stroke-linecap:round;stroke-linejoin:round;stroke-miterlimit:10;" d="
				M212.824,232.861c-2.17-5.952-10.823-26.147-12.007-33.616c-1.184-7.47-1.203-15.849,1.913-21.667
				c3.117-5.818,6.99-8.541,10.663-9.033c10.05-1.346,15.229,11.477,19.151,21.856c3.922,10.379,9.542,27.583,9.542,27.583
				s18.121-0.245,24.586,0.392c5.026,0.495,5.686,3.614,5.686,3.614l-5.574-0.021c0,0-2.665,2.603-2.895,8.692
				c-0.23,6.089,3.108,10.359,3.108,10.359l3.661-0.736c0,0,0.287,4.954-7.649,6.451c-7.736,1.459-24.467,1.411-32.901,0.553
				C221.745,246.437,216.769,243.682,212.824,232.861z"/>
			<path style="fill:none;stroke:#303030;stroke-width:1.5;stroke-linecap:round;stroke-linejoin:round;stroke-miterlimit:10;" d="
				M242.504,218.001c-6.312,0.617-11.874,3.013-15.247,8.384"/>
			
				<path style="fill:#FFFFFF;stroke:#303030;stroke-width:1.5;stroke-linecap:round;stroke-linejoin:round;stroke-miterlimit:10;" d="
				M266.784,221.967l8.463,0.048c0,0-1.937,2.042-2.595,7.265c-0.658,5.223,2.38,10.22,2.38,10.22l-8.036,1.519
				C262.945,235.324,262.914,226.833,266.784,221.967z"/>
		</g>
	</g>
</g>
</svg>
